<?xml version="1.0" encoding="utf-8"?>
<!-- Generator: Adobe Illustrator 28.3.0, SVG Export Plug-In . SVG Version: 6.00 Build 0)  -->
<svg version="1.1" id="Capa_1" xmlns="http://www.w3.org/2000/svg" xmlns:xlink="http://www.w3.org/1999/xlink" x="0px" y="0px"
	 viewBox="0 0 211.3 62" style="enable-background:new 0 0 211.3 62;" xml:space="preserve">
<style type="text/css">
	.st0{fill:#508B3B;}
	.st1{fill:#4E78B5;}
</style>
<g>
	<circle class="st0" cx="51.9" cy="10.1" r="3.3"/>
	<circle class="st0" cx="10.1" cy="51.9" r="3.3"/>
	<path class="st0" d="M10.1,13.4c-1.8,0-3.3-1.5-3.3-3.3s1.5-3.3,3.3-3.3s3.3,1.5,3.3,3.3S11.9,13.4,10.1,13.4z"/>
	<circle class="st0" cx="51.9" cy="51.9" r="3.3"/>
</g>
<g>
	<g>
		<path class="st1" d="M60.5,34.6c-1,1-2.3,1.5-3.6,1.5c-1.3,0-2.6-0.5-3.6-1.5c-1-1-1.5-2.3-1.5-3.6c0-1.3,0.5-2.6,1.5-3.6
			c2-2,5.2-2,7.2,0C62.5,29.4,62.5,32.6,60.5,34.6z"/>
	</g>
	<g>
		<path class="st1" d="M8.7,34.6c-1,1-2.3,1.5-3.6,1.5c-1.3,0-2.6-0.5-3.6-1.5c-1-1-1.5-2.3-1.5-3.6c0-1.3,0.5-2.6,1.5-3.6
			c2-2,5.2-2,7.2,0C10.7,29.4,10.7,32.6,8.7,34.6z"/>
	</g>
	<g>
		<path class="st1" d="M34.6,8.7c-1,1-2.3,1.5-3.6,1.5c-1.3,0-2.6-0.5-3.6-1.5h0c-2-2-2-5.2,0-7.2c2-2,5.2-2,7.2,0
			C36.6,3.5,36.6,6.7,34.6,8.7z"/>
	</g>
	<g>
		<path class="st1" d="M34.6,60.5c-1,1-2.3,1.5-3.6,1.5c-1.3,0-2.6-0.5-3.6-1.5h0c-2-2-2-5.2,0-7.2c2-2,5.2-2,7.2,0
			C36.6,55.3,36.6,58.6,34.6,60.5z"/>
	</g>
</g>
<g>
	<circle class="st1" cx="41.6" cy="20.5" r="5.9"/>
	<circle class="st1" cx="20.5" cy="41.6" r="5.9"/>
	<circle class="st1" cx="41.6" cy="41.6" r="5.9"/>
	<circle class="st1" cx="20.5" cy="20.5" r="5.9"/>
</g>
<circle class="st0" cx="31" cy="31" r="8"/>
<polygon class="st1" points="132.9,8.1 113.7,30.3 109.5,35.2 104.9,30.6 92.4,18.2 92.4,53.9 85.9,53.9 85.9,8.1 91.5,8.1 92.4,9 
	109.1,25.7 124.3,8.1 "/>
<rect x="72.9" y="8.1" class="st1" width="6.5" height="45.8"/>
<rect x="204.8" y="8.1" class="st0" width="6.5" height="45.8"/>
<polygon class="st0" points="199.6,53.9 191,53.9 175.9,36.6 161.7,53.9 153.9,53.9 153.9,27.6 160.4,27.6 160.4,45.2 171.6,31.6 
	175.8,26.5 190.9,8.1 199.3,8.1 180.1,31.5 "/>
<polygon class="st1" points="147.4,8.1 147.4,53.9 140.9,53.9 140.9,19 110.7,53.9 102.1,53.9 140.9,9 141.7,8.1 "/>
<circle class="st1" cx="133.8" cy="37" r="2.7"/>
<g>
	<g>
		<circle class="st0" cx="31" cy="15.4" r="3"/>
		<circle class="st0" cx="31" cy="46.7" r="3"/>
	</g>
	<g>
		<circle class="st0" cx="46.7" cy="31" r="3"/>
		<circle class="st0" cx="15.4" cy="31" r="3"/>
	</g>
</g>
</svg>
